<svg width="2859" height="411" viewBox="0 0 2859 411" fill="none" xmlns="http://www.w3.org/2000/svg">
<path d="M87.1914 250.261C95.0471 195.831 13.265 182.108 0.672701 235.744C-0.804121 243.61 0.16244 251.71 3.45631 259.071C6.75017 266.433 12.2313 272.742 19.2415 277.243C19.8517 277.644 20.4813 278.018 21.1206 278.383C46.6442 293.419 82.1061 278.802 87.1914 250.261ZM37.9749 274.407C37.1032 274.261 36.2508 274.07 35.3984 273.869L37.9168 270.103C38.1329 269.777 38.2343 269.396 38.2065 269.012C38.1786 268.629 38.023 268.264 37.7618 267.969L27.6396 256.489C27.3193 256.131 26.865 255.902 26.3707 255.851L13.9334 254.483C13.6727 254.454 13.4087 254.476 13.1573 254.547C12.9059 254.617 12.6723 254.735 12.4707 254.893C2.42593 232.096 23.9975 207.029 49.8601 211.598C54.3295 212.352 58.5926 213.943 62.3962 216.278C66.1998 218.612 69.4665 221.642 72.0025 225.188C74.5384 228.733 76.2919 232.723 77.159 236.918C78.026 241.114 77.9889 245.431 77.0498 249.613C76.8064 249.371 76.4972 249.196 76.1556 249.108C75.814 249.019 75.4533 249.021 75.1125 249.112L61.0382 253.179C60.7947 253.253 60.5691 253.371 60.3746 253.528C60.1801 253.684 60.0204 253.876 59.9049 254.091L52.5432 267.003C52.4225 267.215 52.3475 267.447 52.3225 267.687C52.2976 267.926 52.3232 268.168 52.3979 268.398C52.4754 268.629 52.601 268.843 52.7673 269.028C52.9336 269.212 53.1373 269.364 53.3666 269.474L58.2776 271.908C51.9482 274.701 44.854 275.574 37.9749 274.407Z" fill="#F31D1D"/>
<path d="M53.3569 242.565L56.7956 226.735C56.8749 226.379 56.8398 226.01 56.6948 225.674C56.5499 225.338 56.3017 225.05 55.982 224.847C55.7107 224.683 50.5963 222.029 40.7743 216.987C40.4321 216.812 40.0421 216.739 39.6551 216.777C39.2681 216.814 38.9021 216.96 38.6046 217.196L25.1405 227.893C24.8197 228.147 24.5953 228.493 24.5009 228.877C24.4066 229.262 24.4475 229.665 24.6175 230.026L31.5723 244.671C31.7376 245.016 32.0129 245.304 32.3601 245.495C32.7072 245.687 33.109 245.771 33.5096 245.738L51.6231 243.969C52.033 243.938 52.4219 243.786 52.7336 243.533C53.0454 243.281 53.2637 242.942 53.3569 242.565Z" fill="#F31D1D"/>
<path d="M27.8527 345.277C26.1754 348.685 24.7985 352.217 23.7359 355.837C16.8392 355.089 15.6866 363.67 22.0215 365.539C21.763 368.881 21.8344 372.239 22.2346 375.569C21.4942 375.937 20.8363 376.435 20.2973 377.038C17.0039 380.111 19.9776 385.682 24.5109 385.007C27.1649 391.144 35.6599 392.056 40.8808 388.6C44.3582 386.311 46.9348 382.217 49.2499 378.807C50.5773 375.99 52.1826 373.298 54.0446 370.764C56.2337 367.682 58.3551 364.144 61.2222 360.515C65.3292 354.961 67.7121 352.08 68.5548 348.396C93.9525 350.676 119.621 352.344 145.029 353.366C156.449 353.821 168.615 353.894 179.26 350.092V350.484C166.436 353.639 161.825 371.566 169.652 380.43C168.992 380.918 168.47 381.553 168.132 382.276C167.794 383 167.651 383.791 167.714 384.579C167.727 385.652 168.125 386.689 168.843 387.522C169.562 388.354 170.559 388.934 171.672 389.165C172.784 389.397 173.948 389.267 174.972 388.797C175.997 388.326 176.822 387.544 177.313 386.576C181.411 388.764 185.644 389.849 189.906 391.263C199.127 394.418 208.058 399.205 217.434 402.497C215.778 405.67 218.025 409.792 221.948 409.719C223.13 409.719 224.274 409.326 225.179 408.611C226.085 407.895 226.693 406.903 226.898 405.807C229.829 406.671 232.867 407.17 235.935 407.293C236.196 408.08 236.67 408.79 237.31 409.353C237.951 409.915 238.735 410.311 239.588 410.502C240.44 410.692 241.33 410.67 242.171 410.439C243.011 410.207 243.773 409.774 244.382 409.181C244.967 408.701 245.432 408.106 245.745 407.438C246.058 406.769 246.211 406.045 246.193 405.315C254.059 400.637 258.863 393.862 247.501 383.184C241.658 377.901 236.11 372.337 230.879 366.515C229.026 364.564 227.375 362.451 225.949 360.205C223.091 355.381 223.769 350.767 224.593 344.621C225.716 336.852 226.966 329.32 229.93 322.581C232.187 317.456 235.635 312.432 238.783 307.444C250.804 288.398 259.915 267.852 265.847 246.413C267.261 242.209 266.903 237.613 263.261 233.756C252.735 221.02 239.995 210.054 225.581 201.321C225.096 199.269 222.878 198.211 221.202 197.026C226.646 171.713 231.431 146.955 253.39 130.879C258.747 126.32 264.307 121.606 268.608 115.688C286.934 118.751 304.961 119.134 321.631 112.751C328.866 110.371 333.777 105.31 334.853 97.2496C336.79 85.8695 333.748 73.4225 337.371 62.7446C338.34 60.009 339.783 57.5652 340.529 54.5378C342.582 46.176 337.739 40.0209 329.583 38.6622C317.369 35.9266 306.946 37.0482 299.459 41.8902C295.787 44.2702 293.647 47.2702 293.327 50.5894C292.949 54.3463 294.993 57.3828 296.233 59.1883C298.471 62.5531 299.488 64.7142 301.638 68.0152C300.757 70.614 300.33 73.4134 299.701 76.0305C285.665 75.1186 271.785 75.6292 258.098 70.8237C253.255 69.0729 248.731 67.0486 243.287 66.2644C237.736 65.5455 232.143 65.1527 226.54 65.0881C230.017 60.474 231.46 53.8083 231.945 48.7201C232.542 44.1837 232.779 39.6116 232.652 35.0421C231.208 4.55837 206.993 -7.52386 174.485 4.7225C163.656 7.9961 158.619 15.2728 158.687 27.9477C158.628 40.112 162.561 52.5681 167.123 64.2491C159.132 62.3433 152.235 62.4254 146.54 64.4771C140.06 66.8297 135.885 71.3617 131.042 75.301C118.343 85.2403 102.757 92.3255 90.1554 102.785C84.7504 106.952 79.6554 110.882 74.1632 115.797C73.6286 116.318 73.0189 116.767 72.3519 117.128C71.1915 117.344 70.0072 117.424 68.826 117.365C58.2679 117.621 44.4939 123.065 40.9293 132.749C38.1783 140.892 44.3292 148.506 47.2932 152.18C49.337 155.035 53.4925 158.564 58.3647 158.408C62.3362 158.408 65.2905 156.411 67.2471 155.089C70.2015 153.138 69.6881 153.512 71.3832 154.56C72.8652 155.609 75.0931 157.196 78.309 157.004C83.898 156.53 85.6222 152.217 87.1333 149.472C89.458 145.186 98.4179 140.755 110.507 137.91C121.374 135.341 131.752 131.201 141.27 125.636C140.566 142.102 136.966 158.344 130.615 173.7C130.174 174.787 130.174 175.988 130.615 177.074C122.866 188.555 121.956 209.446 126.567 226.188C125.598 243.513 127.245 271.726 131.671 287.666C131.91 288.509 132.392 289.274 133.064 289.876C133.735 290.478 134.571 290.893 135.478 291.076C136.447 294.149 137.531 297.204 138.713 300.195C128.677 298.354 118.289 299.285 108.802 302.875C103.9 304.745 99.3769 307.362 94.6305 309.158C85.5862 312.542 75.5514 312.752 66.356 309.751C65.4685 309.473 64.7027 308.929 64.1766 308.201C62.3392 306.039 59.7727 304.534 56.9021 303.933C48.32 302.11 40.658 303.86 36.0473 309.642C32.628 308.192 28.3757 310.225 28.3951 313.946C28.3955 315.012 28.7783 316.047 29.4815 316.882C30.1848 317.718 31.1672 318.306 32.2696 318.55C31.301 323.557 32.4053 329.128 31.7853 334.052C31.3398 337.763 29.6446 341.429 27.8527 345.277ZM214.596 204.294C197.878 213.33 181.924 228.978 170.039 246.969C161.796 248.045 150.027 244.68 144.661 239.483C139.052 234.267 136.03 224.893 134.819 216.494C132.456 201.458 134.19 189.476 139.953 180.868C142.278 176.919 144.903 177.457 149.145 178.132C172.721 182.276 195.056 191.204 214.596 204.294ZM137.444 246.084C144.079 252.467 156.197 256.653 166.784 256.653C169.345 256.671 171.898 256.396 174.388 255.832C176.945 255.322 177.933 252.841 179.231 251.036C181.459 251.948 183.726 252.86 185.905 253.662C186.405 259.12 187.377 264.53 188.811 269.839C183.842 270.096 178.906 270.761 174.059 271.826C162.658 274.079 151.296 276.887 140.156 280.079C138.219 270.513 136.941 257.227 136.524 245.163C136.853 245.464 137.144 245.784 137.444 246.084ZM198.672 267.705C197.746 264.339 197.024 260.926 196.512 257.483C198.814 258.261 201.162 258.912 203.544 259.434C201.83 262.197 200.212 264.796 198.672 267.705ZM145.397 343.928L143.353 343.837C142.578 342.998 142.074 339.651 141.803 338.01C139.75 329.174 139.033 322.043 142.065 310.818C143.208 311.183 144.322 311.575 145.416 312.021C149.514 313.845 153.969 309.541 152.013 305.711C149.328 300.143 147.046 294.409 145.184 288.55C155.335 285.659 165.699 283.152 176.054 281.1C180.755 280.039 185.558 279.428 190.39 279.276C190.201 282.481 190.321 285.694 190.748 288.878C186.777 304.982 184.549 322.435 181.111 338.694C171.385 344.447 158.687 344.457 145.436 343.928H145.397ZM240.42 390.059C243.481 392.795 244.004 394.545 243.994 394.792C243.005 395.875 241.809 396.775 240.469 397.445C234.337 398.813 228.38 396.533 221.474 393.88C216.63 392.102 212.165 390.278 207.38 388.117C202.818 386.102 198.11 384.013 193.18 382.363C188.956 380.949 184.007 379.746 180.665 377.466C176.219 374.457 175.008 371.366 176.219 366.059C176.752 363.706 179.396 359.521 182.767 359.548C187.901 364.746 196.434 365.585 203.612 364.937C208.368 364.654 213.754 364.335 216.708 366.214C217.215 366.523 217.776 366.748 218.364 366.879C224.912 375.469 232.506 382.664 240.459 390.059H240.42ZM230.027 302.638C226.666 307.955 223.149 313.061 220.534 318.988C217.105 326.766 215.691 334.964 214.509 343.381C213.789 347.392 213.588 351.47 213.909 355.527C209.017 354.907 204.493 355.445 199.892 355.627C195.291 355.809 190.313 354.715 189.373 351.779C189.182 350.278 189.291 348.756 189.693 347.292L193.761 326.21C197.316 307.9 199.272 287.237 208.087 271.106C217.87 277.671 231.422 279.659 243.345 278.292C239.445 286.652 235.01 294.782 230.065 302.638H230.027ZM255.211 239.619C255.708 240.151 256.122 240.747 256.441 241.388C256.453 242.302 256.302 243.211 255.996 244.078C253.777 252.114 251.09 260.029 247.946 267.787C234.899 271.434 220.369 268.197 213.124 262.826C213.996 261.449 214.966 260.13 216.03 258.878C216.567 258.245 216.926 257.496 217.076 256.699C217.199 256.041 217.173 255.366 217 254.719C216.828 254.071 216.513 253.465 216.075 252.939C215.637 252.414 215.087 251.981 214.46 251.669C213.834 251.357 213.144 251.172 212.436 251.127C205.733 250.762 200.58 248.902 195.117 246.923C191.775 245.738 188.579 244.498 185.033 243.075C196.144 228.75 208.746 217.981 222.578 210.987C235.009 218.844 246.036 228.509 255.25 239.619H255.211ZM302.675 85.7601C310.288 86.1522 309.232 73.842 311.693 69.5289C312.073 68.7847 312.241 67.9597 312.178 67.1359C312.115 66.312 311.824 65.518 311.334 64.8327C308.428 60.7749 307.46 58.3129 304.66 54.1457C304.312 53.6168 303.236 52.0119 303.285 51.483C303.285 51.3462 303.653 50.6441 305.096 49.6593C311.518 45.5194 320.652 46.3857 327.191 47.8355C328.295 48.0156 329.351 48.3966 330.3 48.9571C332.15 51.8842 328.634 56.5712 327.733 59.7901C325.166 67.158 325.273 74.6718 325.379 81.9394C325.588 86.5874 325.4 91.2438 324.818 95.8636C324.42 98.4624 323.587 100.368 322.367 101.526C321.038 102.594 319.502 103.408 317.843 103.924C309.585 106.974 300.773 108.477 291.903 108.347C294.532 100.816 294.673 92.7119 292.31 85.1035C295.749 85.3133 299.255 85.4865 302.684 85.7601H302.675ZM219.701 56.9542C215.604 65.2431 202.353 76.1764 190.739 75.684C182.505 74.7721 178.05 66.0455 175.996 59.1062C173.024 52.2439 170.892 45.0852 169.642 37.7685C171.792 33.118 176.761 28.3672 181.779 29.2608C185.566 30.1089 188.831 32.1788 193.354 31.9964C197.461 31.9964 200.648 29.7168 204.087 29.1149C205.724 30.5739 208.01 36.5284 208.93 38.8354C210.131 41.7352 210.606 44.7261 214.044 45.4556C217.822 46.2398 219.798 42.8932 222.462 40.8324C222.035 45.7838 221.764 52.1213 219.701 56.9542ZM211.894 78.6019C210.47 84.8117 208.271 89.982 205.462 93.6204C204.983 94.3315 204.365 94.9504 203.641 95.4441C199.437 95.5718 195.504 89.1431 192.986 85.1035C199.243 84.8482 205.646 82.6597 211.894 78.6019ZM177.991 13.6041C198.498 6.16325 217.638 7.22102 221.91 29.9538C220.176 30.5417 218.571 31.4224 217.173 32.5527C213.008 21.82 207.777 16.595 196.735 21.4097C193.48 22.8231 192.095 22.7957 188.714 21.4097C185.563 19.9947 182.054 19.4362 178.583 19.7971C175.113 20.158 171.818 21.4239 169.07 23.4522C169.903 17.3974 172.509 15.3366 178.001 13.6041H177.991ZM137.502 82.5503C141.532 79.377 145.62 74.9727 150.153 73.3313C155.664 71.3252 163.917 72.4195 174.001 76.5229C175.622 78.4473 177.519 80.1505 179.638 81.5837C184.481 90.52 191.262 104.736 203.292 105.028C216.175 104.909 221.6 83.5351 222.868 74.535C229.156 74.4987 235.438 74.8734 241.67 75.6566C245.777 76.222 250.242 78.2098 254.398 79.687C263.58 82.9698 272.87 84.0458 281.762 84.6111C282.12 86.1887 282.585 87.5565 283.001 89.061C284.645 95.3232 284.07 101.919 281.364 107.845C277.025 107.426 272.23 106.751 266.583 105.776C265.909 105.656 265.215 105.669 264.546 105.813C263.877 105.956 263.247 106.228 262.694 106.612C262.142 106.995 261.679 107.481 261.335 108.04C260.991 108.599 260.772 109.219 260.694 109.861C256.819 115.013 251.976 119.362 246.571 123.876C223.818 140.791 217.512 165.503 212.088 191.354C193.416 180.28 172.682 172.64 150.986 168.84C148.487 168.329 145.925 168.141 143.372 168.284C148.872 152.147 151.599 135.287 151.451 118.341C151.958 117.389 152.11 116.304 151.883 115.261C151.655 114.218 151.061 113.277 150.196 112.59C149.331 111.903 148.246 111.511 147.116 111.476C145.985 111.44 144.874 111.764 143.963 112.396C139.644 115.502 135.059 118.269 130.257 120.666C126.663 117.265 123.874 112.861 121.162 108.584C118.691 104.882 116.657 100.943 116.454 96.5201C123.612 92.1523 131.022 87.7297 137.512 82.5503H137.502ZM108.056 128.709C98.3695 130.98 81.6992 136.259 77.2532 146.855C71.112 142.205 65.0387 144.594 61.3578 147.393C59.0137 148.98 58.5778 149.08 57.7351 148.816C57.0668 148.606 55.9528 147.238 55.2942 146.427C52.3883 142.779 49.4823 138.667 50.5188 135.621C53.1825 130.15 62.7721 126.976 69.0585 126.849C71.2767 126.803 73.5142 126.903 76.1489 125.937C77.9885 125.169 79.6529 124.072 81.0502 122.709C89.3362 115.436 98.069 108.628 107.203 102.32C108.104 106.222 110.371 110.244 112.483 113.453C114.882 117.458 117.623 121.273 120.677 124.861C116.571 126.412 112.357 127.698 108.066 128.709H108.056ZM69.8237 320.447C79.3997 322.227 89.3177 321.369 98.3889 317.976C103.339 316.152 107.862 313.508 112.638 311.666C118.851 309.321 125.564 308.384 132.233 308.93C129.501 319.645 129.23 328.517 131.342 336.56C131.817 338.539 132.078 341.192 132.611 343.371C111.378 342.35 89.9908 340.864 68.797 338.949C68.2933 332.739 67.344 326.046 69.8237 320.447ZM34.575 354.852C37.0741 348.368 40.8518 342.46 41.8107 335.238C42.1162 332.527 42.1874 329.798 42.0238 327.076C41.462 318.149 42.9925 310.8 54.6161 313.17C55.5848 313.389 55.7785 313.563 56.6599 314.502C57.682 315.657 58.8877 316.657 60.2342 317.465C57.4155 324.396 58.0548 331.663 58.5778 337.691C58.82 340.827 59.2753 344.147 58.5778 346.809C57.2121 350.074 50.945 357.323 48.7171 360.943C45.3075 366.341 43.3799 368.056 40.2222 374.53C38.8854 376.299 36.7544 379.673 35.224 380.767C34.7648 381.06 34.2185 381.206 33.6645 381.187C31.0394 372.534 31.3578 363.325 34.575 354.852Z" fill="#F31D1D"/>
<path d="M2709.17 367.1V330.8H2728.07C2732.67 330.8 2736.47 330.2 2739.47 329C2742.67 328 2745.27 326.2 2747.27 323.6C2749.47 321.2 2751.27 318.1 2752.67 314.3L2760.17 294.8V313.4L2694.77 156.2H2743.37L2769.77 237.8L2777.57 263.9H2779.37L2786.87 237.8L2811.47 156.2H2858.57L2796.17 324.5C2791.97 335.7 2786.97 344.4 2781.17 350.6C2775.37 356.8 2768.77 361.1 2761.37 363.5C2753.97 365.9 2745.67 367.1 2736.47 367.1H2709.17Z" fill="white"/>
<path d="M2423.26 317V156.2H2465.86L2467.36 185.3H2469.16C2473.36 174.5 2479.86 166.5 2488.66 161.3C2497.66 155.9 2507.56 153.2 2518.36 153.2C2529.56 153.2 2539.76 155.9 2548.96 161.3C2558.36 166.7 2565.16 176 2569.36 189.2H2571.76C2575.76 177.2 2582.56 168.2 2592.16 162.2C2601.76 156.2 2612.66 153.2 2624.86 153.2C2635.26 153.2 2644.56 155.4 2652.76 159.8C2661.16 164.2 2667.76 171.3 2672.56 181.1C2677.36 190.7 2679.76 203.6 2679.76 219.8V317H2635.66V229.4C2635.66 220.4 2634.66 212.9 2632.66 206.9C2630.86 200.9 2627.76 196.5 2623.36 193.7C2619.16 190.7 2613.76 189.2 2607.16 189.2C2599.96 189.2 2593.86 191 2588.86 194.6C2583.86 198.2 2580.06 202.9 2577.46 208.7C2574.86 214.5 2573.56 220.8 2573.56 227.6V317H2529.46V229.4C2529.46 220.4 2528.46 212.9 2526.46 206.9C2524.46 200.9 2521.36 196.5 2517.16 193.7C2512.96 190.7 2507.56 189.2 2500.96 189.2C2493.76 189.2 2487.66 191 2482.66 194.6C2477.66 198.2 2473.86 202.9 2471.26 208.7C2468.66 214.5 2467.36 220.8 2467.36 227.6V317H2423.26Z" fill="white"/>
<path d="M2321.17 320C2304.37 320 2290.07 316.6 2278.27 309.8C2266.67 303 2257.77 293.4 2251.57 281C2245.37 268.6 2242.27 254.2 2242.27 237.8C2242.27 220.4 2245.37 205.4 2251.57 192.8C2257.97 180.2 2266.87 170.5 2278.27 163.7C2289.87 156.7 2303.57 153.2 2319.37 153.2C2337.77 153.2 2352.77 157.2 2364.37 165.2C2376.17 173.2 2384.67 184.2 2389.87 198.2C2395.07 212.2 2396.77 228.2 2394.97 246.2H2285.47C2285.47 255 2286.87 262.5 2289.67 268.7C2292.67 274.7 2296.87 279.2 2302.27 282.2C2307.67 285.2 2313.97 286.7 2321.17 286.7C2329.57 286.7 2336.37 285 2341.57 281.6C2346.77 278.2 2350.27 273.7 2352.07 268.1H2393.77C2392.17 278.7 2388.07 287.9 2381.47 295.7C2374.87 303.3 2366.37 309.3 2355.97 313.7C2345.77 317.9 2334.17 320 2321.17 320ZM2285.47 223.1L2281.57 218.9H2355.97L2351.77 223.1C2352.17 214.7 2350.97 207.9 2348.17 202.7C2345.57 197.3 2341.77 193.2 2336.77 190.4C2331.97 187.6 2326.17 186.2 2319.37 186.2C2312.57 186.2 2306.57 187.7 2301.37 190.7C2296.37 193.5 2292.47 197.7 2289.67 203.3C2287.07 208.7 2285.67 215.3 2285.47 223.1Z" fill="white"/>
<path d="M2118.45 319.7C2108.65 319.7 2099.75 317.9 2091.75 314.3C2083.75 310.5 2076.85 305.1 2071.05 298.1C2065.25 290.9 2060.75 282.1 2057.55 271.7C2054.55 261.3 2053.05 249.6 2053.05 236.6C2053.05 219 2055.75 204 2061.15 191.6C2066.75 179 2074.45 169.5 2084.25 163.1C2094.05 156.5 2105.45 153.2 2118.45 153.2C2126.65 153.2 2134.05 154.5 2140.65 157.1C2147.25 159.5 2152.95 163 2157.75 167.6C2162.55 172 2166.05 177.2 2168.25 183.2H2170.05V98.3H2214.15V317H2172.45L2170.65 289.7H2168.25C2165.05 298.7 2158.95 306 2149.95 311.6C2141.15 317 2130.65 319.7 2118.45 319.7ZM2134.35 284C2142.35 284 2148.95 282.3 2154.15 278.9C2159.55 275.5 2163.55 270.8 2166.15 264.8C2168.75 258.8 2170.05 252 2170.05 244.4V228.5C2170.05 220.7 2168.65 213.9 2165.85 208.1C2163.25 202.1 2159.25 197.4 2153.85 194C2148.65 190.6 2142.55 188.9 2135.55 188.9C2127.15 188.9 2120.15 190.8 2114.55 194.6C2109.15 198.4 2105.05 203.9 2102.25 211.1C2099.45 218.1 2098.05 226.6 2098.05 236.6C2098.05 246.2 2099.35 254.6 2101.95 261.8C2104.55 269 2108.55 274.5 2113.95 278.3C2119.35 282.1 2126.15 284 2134.35 284Z" fill="white"/>
<path d="M1927.73 319.7C1917.93 319.7 1909.03 317.9 1901.03 314.3C1893.03 310.5 1886.13 305.1 1880.33 298.1C1874.53 290.9 1870.03 282.1 1866.83 271.7C1863.83 261.3 1862.33 249.6 1862.33 236.6C1862.33 219 1865.03 204 1870.43 191.6C1876.03 179 1883.73 169.5 1893.53 163.1C1903.33 156.5 1914.73 153.2 1927.73 153.2C1935.93 153.2 1943.33 154.5 1949.93 157.1C1956.53 159.5 1962.23 163 1967.03 167.6C1971.83 172 1975.33 177.2 1977.53 183.2H1979.93L1981.73 156.2H2023.43V317H1981.73L1979.93 289.7H1977.53C1974.33 298.7 1968.23 306 1959.23 311.6C1950.43 317 1939.93 319.7 1927.73 319.7ZM1943.63 284C1951.63 284 1958.23 282.3 1963.43 278.9C1968.83 275.5 1972.83 270.8 1975.43 264.8C1978.03 258.8 1979.33 252 1979.33 244.4V228.5C1979.33 220.7 1977.93 213.9 1975.13 208.1C1972.53 202.1 1968.53 197.4 1963.13 194C1957.93 190.6 1951.83 188.9 1944.83 188.9C1936.43 188.9 1929.43 190.8 1923.83 194.6C1918.43 198.4 1914.33 203.9 1911.53 211.1C1908.73 218.1 1907.33 226.6 1907.33 236.6C1907.33 246.2 1908.63 254.6 1911.23 261.8C1913.83 269 1917.83 274.5 1923.23 278.3C1928.63 282.1 1935.43 284 1943.63 284Z" fill="white"/>
<path d="M1768.08 319.7C1756.08 319.7 1745.18 317.8 1735.38 314C1725.58 310 1717.08 304.3 1709.88 296.9C1702.88 289.5 1697.48 280.7 1693.68 270.5C1690.08 260.3 1688.28 249 1688.28 236.6C1688.28 224 1690.18 212.6 1693.98 202.4C1697.78 192 1703.18 183.2 1710.18 176C1717.38 168.6 1725.98 163 1735.98 159.2C1745.98 155.2 1757.18 153.2 1769.58 153.2C1783.18 153.2 1795.28 155.8 1805.88 161C1816.68 166 1825.28 173.1 1831.68 182.3C1838.08 191.3 1841.58 201.8 1842.18 213.8H1799.28C1798.28 208.4 1796.28 203.9 1793.28 200.3C1790.48 196.7 1786.88 194 1782.48 192.2C1778.28 190.2 1773.58 189.2 1768.38 189.2C1762.58 189.2 1757.48 190.4 1753.08 192.8C1748.68 195 1744.98 198.2 1741.98 202.4C1738.98 206.4 1736.68 211.3 1735.08 217.1C1733.68 222.9 1732.98 229.4 1732.98 236.6C1732.98 247.2 1734.38 256 1737.18 263C1740.18 269.8 1744.28 275 1749.48 278.6C1754.88 282 1761.08 283.7 1768.08 283.7C1774.28 283.7 1779.58 282.7 1783.98 280.7C1788.58 278.5 1792.18 275.5 1794.78 271.7C1797.58 267.7 1799.28 263.3 1799.88 258.5H1842.78C1841.98 270.9 1838.28 281.7 1831.68 290.9C1825.08 300.1 1816.38 307.2 1805.58 312.2C1794.78 317.2 1782.28 319.7 1768.08 319.7Z" fill="white"/>
<path d="M1463.76 317L1536.36 98.3H1602.96L1675.56 317H1626.96L1578.96 161.9L1570.86 133.7H1568.76L1560.36 161.9L1512.36 317H1463.76ZM1522.86 272L1532.46 236H1606.86L1616.46 272H1522.86Z" fill="white"/>
<path d="M1314.33 320C1303.53 320 1293.83 318.8 1285.23 316.4C1276.63 313.8 1269.23 310.2 1263.03 305.6C1257.03 301 1252.33 295.5 1248.93 289.1C1245.53 282.5 1243.73 275.3 1243.53 267.5H1287.03C1287.63 272.5 1289.13 276.6 1291.53 279.8C1293.93 282.8 1297.13 285.1 1301.13 286.7C1305.33 288.1 1310.13 288.8 1315.53 288.8C1323.73 288.8 1329.83 287.3 1333.83 284.3C1338.03 281.3 1340.13 277.2 1340.13 272C1340.13 267.8 1339.13 264.6 1337.13 262.4C1335.13 260 1331.83 258.2 1327.23 257C1322.83 255.6 1316.83 254.4 1309.23 253.4C1295.43 251.2 1283.93 248.3 1274.73 244.7C1265.53 241.1 1258.73 236.1 1254.33 229.7C1249.93 223.3 1247.73 214.9 1247.73 204.5C1247.73 194.1 1250.53 185.1 1256.13 177.5C1261.93 169.9 1269.93 164 1280.13 159.8C1290.33 155.4 1302.23 153.2 1315.83 153.2C1328.83 153.2 1340.13 155.3 1349.73 159.5C1359.53 163.5 1367.13 169.3 1372.53 176.9C1378.13 184.3 1381.23 193 1381.83 203H1338.33C1338.33 198.6 1337.23 195.1 1335.03 192.5C1333.03 189.7 1330.23 187.6 1326.63 186.2C1323.23 184.8 1319.23 184.1 1314.63 184.1C1307.63 184.1 1302.03 185.6 1297.83 188.6C1293.83 191.4 1291.83 195.4 1291.83 200.6C1291.83 204.4 1292.93 207.5 1295.13 209.9C1297.53 212.1 1301.33 213.9 1306.53 215.3C1311.73 216.7 1318.53 218 1326.93 219.2C1340.13 221 1351.03 223.7 1359.63 227.3C1368.23 230.9 1374.63 236 1378.83 242.6C1383.03 249 1385.13 257.5 1385.13 268.1C1385.13 279.1 1382.13 288.5 1376.13 296.3C1370.33 304.1 1362.13 310 1351.53 314C1340.93 318 1328.53 320 1314.33 320Z" fill="white"/>
<path d="M1187.95 317C1174.15 317 1163.95 313.8 1157.35 307.4C1150.75 300.8 1147.45 290.4 1147.45 276.2V191.6H1118.65V156.2H1147.45V112.4L1191.55 108.2V156.2H1223.95V191.6H1191.55V268.1C1191.55 273.1 1192.75 276.5 1195.15 278.3C1197.55 280.1 1200.95 281 1205.35 281H1223.95V317H1187.95Z" fill="white"/>
<path d="M1006.76 317V156.2H1046.66L1048.46 182H1049.96C1053.56 171.6 1059.26 164.4 1067.06 160.4C1075.06 156.2 1084.16 154.1 1094.36 154.1C1096.16 154.1 1097.76 154.1 1099.16 154.1C1100.56 154.1 1101.96 154.1 1103.36 154.1V195.5C1102.36 195.5 1100.96 195.5 1099.16 195.5C1097.36 195.5 1095.46 195.5 1093.46 195.5C1083.66 195.5 1075.66 197 1069.46 200C1063.26 202.8 1058.66 207 1055.66 212.6C1052.66 218.2 1051.06 225 1050.86 233V317H1006.76Z" fill="white"/>
<path d="M897.694 319.7C885.494 319.7 874.494 317.9 864.694 314.3C854.894 310.5 846.394 305 839.194 297.8C831.994 290.6 826.494 281.9 822.694 271.7C818.894 261.3 816.994 249.6 816.994 236.6C816.994 220 820.194 205.5 826.594 193.1C832.994 180.5 842.194 170.7 854.194 163.7C866.194 156.7 880.694 153.2 897.694 153.2C909.694 153.2 920.594 155.1 930.394 158.9C940.194 162.7 948.594 168.2 955.594 175.4C962.794 182.6 968.294 191.3 972.094 201.5C976.094 211.7 978.094 223.4 978.094 236.6C978.094 253 974.894 267.5 968.494 280.1C962.094 292.5 952.894 302.2 940.894 309.2C929.094 316.2 914.694 319.7 897.694 319.7ZM897.394 284C904.594 284 910.894 282.3 916.294 278.9C921.894 275.3 926.094 270 928.894 263C931.894 256 933.394 247.2 933.394 236.6C933.394 228.6 932.594 221.7 930.994 215.9C929.394 209.9 926.994 204.9 923.794 200.9C920.594 196.9 916.794 194 912.394 192.2C907.994 190.2 903.094 189.2 897.694 189.2C890.494 189.2 884.094 190.9 878.494 194.3C873.094 197.7 868.894 202.9 865.894 209.9C862.894 216.9 861.394 225.8 861.394 236.6C861.394 244.6 862.194 251.6 863.794 257.6C865.594 263.4 868.094 268.3 871.294 272.3C874.494 276.1 878.294 279 882.694 281C887.094 283 891.994 284 897.394 284Z" fill="white"/>
<path d="M630.291 367.1V156.2H672.291L673.791 183.5H676.191C679.591 174.5 685.691 167.2 694.491 161.6C703.491 156 713.991 153.2 725.991 153.2C735.991 153.2 744.991 155.1 752.991 158.9C760.991 162.7 767.891 168.2 773.691 175.4C779.491 182.4 783.891 191.1 786.891 201.5C790.091 211.7 791.691 223.4 791.691 236.6C791.691 254 788.891 269 783.291 281.6C777.891 294 770.291 303.5 760.491 310.1C750.691 316.7 739.191 320 725.991 320C717.991 320 710.591 318.8 703.791 316.4C697.191 313.8 691.491 310.2 686.691 305.6C681.891 301 678.391 295.8 676.191 290H674.391V367.1H630.291ZM709.191 284.3C717.391 284.3 724.291 282.4 729.891 278.6C735.491 274.6 739.591 269 742.191 261.8C744.991 254.6 746.391 246.2 746.391 236.6C746.391 226.8 745.091 218.4 742.491 211.4C739.891 204.2 735.891 198.7 730.491 194.9C725.091 190.9 718.291 188.9 710.091 188.9C702.291 188.9 695.691 190.7 690.291 194.3C684.891 197.7 680.891 202.4 678.291 208.4C675.691 214.4 674.391 221.2 674.391 228.8V244.7C674.391 252.5 675.791 259.4 678.591 265.4C681.391 271.2 685.391 275.8 690.591 279.2C695.791 282.6 701.991 284.3 709.191 284.3Z" fill="white"/>
<path d="M510.9 319.7C491.1 319.7 474.5 316.7 461.1 310.7C447.7 304.7 437.6 296.3 430.8 285.5C424 274.7 420.5 262.3 420.3 248.3H468C468.2 255.5 469.8 261.8 472.8 267.2C476 272.4 480.8 276.5 487.2 279.5C493.8 282.5 502.3 284 512.7 284C520.7 284 527.7 283.1 533.7 281.3C539.7 279.3 544.3 276.3 547.5 272.3C550.7 268.1 552.3 262.8 552.3 256.4C552.3 251.6 551.5 247.6 549.9 244.4C548.3 241.2 545.5 238.5 541.5 236.3C537.7 234.1 532.5 232.3 525.9 230.9C519.3 229.3 511.1 227.6 501.3 225.8C488.7 224 477.6 221.4 468 218C458.6 214.6 450.7 210.4 444.3 205.4C437.9 200.4 433.1 194.4 429.9 187.4C426.7 180.2 425.1 171.8 425.1 162.2C425.1 148.4 428.5 136.6 435.3 126.8C442.3 116.8 452.2 109.1 465 103.7C477.8 98.3 493 95.6 510.6 95.6C527.8 95.6 542.6 98.3 555 103.7C567.4 109.1 577 116.7 583.8 126.5C590.8 136.3 594.3 147.7 594.3 160.7H547.2C547 153.7 545.1 148 541.5 143.6C538.1 139.2 533.6 136 528 134C522.4 132 516.1 131 509.1 131C501.7 131 495.3 132 489.9 134C484.7 135.8 480.7 138.6 477.9 142.4C475.1 146 473.7 150.6 473.7 156.2C473.7 162 475.2 166.7 478.2 170.3C481.2 173.7 486.5 176.5 494.1 178.7C501.9 180.7 512.6 182.9 526.2 185.3C535.6 186.7 544.7 188.6 553.5 191C562.3 193.4 570.3 197 577.5 201.8C584.7 206.4 590.4 212.9 594.6 221.3C598.8 229.5 600.9 240.2 600.9 253.4C600.9 266.4 597.5 278 590.7 288.2C584.1 298.2 574.1 306 560.7 311.6C547.5 317 530.9 319.7 510.9 319.7Z" fill="white"/>
</svg>
